<?xml version="1.0" encoding="UTF-8" standalone="no"?>
<svg
   width="400"
   height="250"
   version="1.1"
   viewBox="0 0 105.83 66.146"
   id="svg6"
   sodipodi:docname="enf.svg"
   inkscape:version="1.2.1 (9c6d41e410, 2022-07-14)"
   xmlns:inkscape="http://www.inkscape.org/namespaces/inkscape"
   xmlns:sodipodi="http://sodipodi.sourceforge.net/DTD/sodipodi-0.dtd"
   xmlns="http://www.w3.org/2000/svg"
   xmlns:svg="http://www.w3.org/2000/svg">
  <defs
     id="defs10" />
  <sodipodi:namedview
     id="namedview8"
     pagecolor="#ffffff"
     bordercolor="#000000"
     borderopacity="0.25"
     inkscape:showpageshadow="2"
     inkscape:pageopacity="0.0"
     inkscape:pagecheckerboard="0"
     inkscape:deskcolor="#d1d1d1"
     showgrid="false"
     inkscape:zoom="2.1"
     inkscape:cx="171.90476"
     inkscape:cy="78.571429"
     inkscape:window-width="1366"
     inkscape:window-height="705"
     inkscape:window-x="-8"
     inkscape:window-y="-8"
     inkscape:window-maximized="1"
     inkscape:current-layer="svg6" />
  <path
     d="m 106.70875,54.044553 c 0,0 -11.573534,2.623242 -20.645608,-3.367577 C 74.96178,43.346099 71.833745,32.334589 64.937327,27.993378 57.788366,22.896102 37.395839,34.145231 26.673235,30.570807 13.681987,21.200733 1.2636788,-0.763704 1.2636788,-0.763704 L 106.70987,-1.061576 Z"
     clip-path="url(#a)"
     fill="#7c42a9"
     id="path2"
     style="stroke-width:1.1145"
     sodipodi:nodetypes="csccccc" />
  <path
     transform="matrix(1.1145,0,0,1.1145,-80.974,-40.466)"
     d="m 74.94,35.177 c 0,0 8.316985,23.551728 20.538097,27.776163 17.082893,6.146457 25.061443,-2.574099 33.880773,-0.503858 12.00192,2.817318 9.56052,11.853211 19.40761,18.205241 8.15208,5.108099 20.78552,3.699894 20.78552,3.699894"
     clip-path="url(#b)"
     fill="none"
     stroke="#53d6ce"
     stroke-width="5.2228"
     id="path4"
     sodipodi:nodetypes="ccscc" />
</svg>
