<?xml version="1.0" encoding="UTF-8"?>
<svg width="400" height="250" version="1.1" viewBox="0 0 105.83 66.146" xmlns="http://www.w3.org/2000/svg">
 <path transform="matrix(1.1145 0 0 1.1145 -80.974 -40.466)" d="m168.74 85.14s-12.294 1.0691-21.916-.53454c-9.6217-1.6036-13.898-16.571-20.312-17.64-6.4145-1.0691-22.451 4.2763-32.072 1.0691-9.6217-3.2072-20.312-32.072-20.312-32.072l94.613-.26727z" clip-path="url(#a)" fill="#7c42a9"/>
 <path transform="matrix(1.1145 0 0 1.1145 -80.974 -40.466)" d="m74.94 35.177s10.691 28.865 20.312 32.072c9.6217 3.2072 25.658-2.1382 32.072-1.0691s10.691 16.036 20.312 17.64c9.6217 1.6036 21.916.53454 21.916.53454" clip-path="url(#b)" fill="none" stroke="#53d6ce" stroke-width="5.2228"/>
</svg>
