<?xml version="1.0" encoding="UTF-8"?>
<svg width="400" height="250" version="1.1" viewBox="0 0 105.83 66.146" xmlns="http://www.w3.org/2000/svg">
 <path transform="translate(-.14174 .24214)" d="m106.36 71.003c-7.357-2.1378-15.261-23.367-25.07-26.36-9.8094-2.9929-27.137 7.9206-35.918.92402-5.3329-4.2489-3.4065-28.689-15.26-33.82-11.853-5.1307-15.786 7.5604-32.169 11.816l1.6776 47.686z" clip-path="url(#a)" fill="#7c42a9"/>
 <path transform="translate(-.14174 .24214)" d="m-18.029 25.403s9.6465-.19636 15.974-1.8399c16.383-4.2556 20.316-16.947 32.169-11.816 11.853 5.1307 9.9266 29.571 15.26 33.82 8.7816 6.9965 26.109-3.9169 35.918-.92402 9.8094 2.9929 12.568 22.084 25.07 26.36" clip-path="url(#b)" fill="none" stroke="#fbee7c" stroke-width="5.8208"/>
</svg>
