<?xml version="1.0" encoding="UTF-8"?>
<svg width="400" height="250" version="1.1" viewBox="0 0 105.83 66.146" xmlns="http://www.w3.org/2000/svg">
 <path transform="translate(-.35435 -.30711)" d="m106.18 14.628s-2.5211 2.3149-6.6879 2.3149c-4.1668 0-18.617-11.575-29.555-3.1416-10.938 8.4332-6.9049 23.02-10.03 26.634-3.1251 3.6143-15.962 2.2679-20.129 5.2797-4.1668 3.0119-9.2234 11.492-12.869 15.106-3.6459 3.6143-20.843 5.6338-20.843 5.6338l100.14-4e-6z" clip-path="url(#a)" fill="#7c42a9"/>
 <path transform="translate(-.35435 -.30711)" d="m111.47 12.124s-7.8127 4.819-11.98 4.819c-4.1668 0-18.617-11.575-29.555-3.1416-10.938 8.4333-6.9049 23.02-10.03 26.634-3.1251 3.6142-15.962 2.2679-20.129 5.2797s-10.357 11.303-14.003 14.917c-3.646 3.6142-27.269 9.9806-27.269 9.9806" clip-path="url(#b)" fill="none" stroke="#bc7bef" stroke-width="5.8208"/>
</svg>
